<svg width="302" height="392" fill="none" xmlns="http://www.w3.org/2000/svg"><path fill="#C4C4C4" d="M0 0h302v392H0z"/><path d="M132.476 134.727l-20.016-5.222-5.221 19.907 14.468-3.916 10.769-10.769zm-16.751 16.861l-28.718 7.832 4.46 16.316 24.258-24.148zm97.469 25.998l5.33-20.342-19.906-5.113 4.024 15.121 10.552 10.334zM89.944 215.55l-5.221 20.015 19.906 5.113-3.916-14.468-10.769-10.66zm98.663-83.651l-16.643 4.569 24.475 24.475-7.832-29.044zm-1.524 109.431l29.044-7.941-4.46-16.643-24.584 24.584zm-16.642 16.643l20.233 5.33 5.33-19.906-15.12 4.025-10.443 10.551zm-55.805 2.937l16.317-4.351-24.04-24.149 7.723 28.5zm97.467-50.799l13.706-13.706-43.511-43.512-16.97-16.969L151.405 122l-24.258 24.258-36.115 36.114L77 196.405l24.475 24.475 36.115 36.114 13.815 13.815 24.149-24.149 36.549-36.549zm-61.133-2.393c0 1.305-.436 2.502-1.415 3.372l-5.656 5.547c-.979.979-2.067 1.415-3.372 1.415h-24.149v-45.361h24.04c1.305 0 2.502.435 3.372 1.414l5.548 5.548c.979.979 1.414 2.067 1.414 3.372v24.693h.218zm13.271-35.027h8.158v37.637h22.3v7.724h-30.458v-45.361z" fill="#fff"/><path d="M139.654 180.849c-.217-.217-.543-.435-.979-.435h-14.141v29.914h14.141c.436 0 .653-.108.979-.435l2.611-2.611c.218-.326.435-.652.435-.979v-21.864c0-.326-.109-.653-.435-.979l-2.611-2.611z" fill="#fff"/><path d="M93.3 43.052L46.65 0h94.529L93.301 43.052zM0 0h38.057l51.56 47.584L0 133.688V0z" fill="#B8B8B8"/></svg>